# xmcd
#
# Track frame offsets:
#	150
#	37698
#	53046
#	85269
#	98892
#	117915
#	141813
#	161736
#	181734
#	198432
#	215130
#	234528
#	248901
#	270999
#	287397
#	311670
#
# Disc length: 4439 seconds
#
# Revision: 0
# Processed by: cddbd v1.5.2PL0 Copyright (c) Steve Scherf et al.
# Submitted via: audiograbber 1.83.01
#
DISCID=d9115510
DTITLE=Alabama - Livin' Lovin' Rockin' Rollin' - The 25th Anniversary Collectio
DTITLE=n - Disc 1
DYEAR=2006
DGENRE=Country
TTITLE0=My Home's in Alabama (Live)
TTITLE1=Forty Hour Week (For a Livin')
TTITLE2=Medley - That Silver Haired Daddy of Mine, Suppertime, Teach Your Child
TTITLE2=ren, Don't it Make You Want to go Home
TTITLE3=High Cotton
TTITLE4=Mountain Music
TTITLE5=Dixieland Delight (Live)
TTITLE6=Carolina Mountain Dewe
TTITLE7=Roll On (Eighteen Wheeler)
TTITLE8=If You're Gonna Play in Texas (You Gotta Have a Fiddle in the Band) (Li
TTITLE8=ve)
TTITLE9=Christmas in Dixie
TTITLE10=I Write a Little
TTITLE11=Song of the South
TTITLE12=Pass it on Down
TTITLE13=Five O'Clock 500
TTITLE14=Tar Top (Live)
TTITLE15=Dancin', Shaggin' on the Boulevard
EXTD=YEAR: 2006
EXTT0=
EXTT1=
EXTT2=
EXTT3=
EXTT4=
EXTT5=
EXTT6=
EXTT7=
EXTT8=
EXTT9=
EXTT10=
EXTT11=
EXTT12=
EXTT13=
EXTT14=
EXTT15=
PLAYORDER=
